<?xml version="1.0" encoding="UTF-8"?>
<svg xmlns="http://www.w3.org/2000/svg" xmlns:xlink="http://www.w3.org/1999/xlink" width="50pt" height="50pt" viewBox="0 0 50 50" version="1.1">
<g id="surface1">
<path style=" stroke:none;fill-rule:nonzero;fill:rgb(70.196078%,70.196078%,70.196078%);fill-opacity:1;" d="M 24.925781 0.402344 L 1.777344 8.546875 L 5.4375 38.875 L 24.949219 49.597656 L 44.566406 38.730469 L 48.222656 8.402344 Z M 24.925781 0.402344 "/>
<path style=" stroke:none;fill-rule:nonzero;fill:rgb(65.098039%,7.058824%,5.098039%);fill-opacity:1;" d="M 45.914062 10.15625 L 24.871094 2.980469 L 24.871094 47.035156 L 42.503906 37.277344 Z M 45.914062 10.15625 "/>
<path style=" stroke:none;fill-rule:nonzero;fill:rgb(86.666667%,10.588235%,8.627451%);fill-opacity:1;" d="M 4.375 10.285156 L 7.511719 37.40625 L 24.871094 47.035156 L 24.871094 2.980469 Z M 4.375 10.285156 "/>
<path style=" stroke:none;fill-rule:nonzero;fill:rgb(94.901961%,94.901961%,94.901961%);fill-opacity:1;" d="M 30.664062 26.433594 L 24.871094 29.140625 L 18.765625 29.140625 L 15.898438 36.320312 L 10.558594 36.417969 L 24.871094 4.578125 Z M 30.105469 25.070312 L 24.910156 14.789062 L 20.648438 24.894531 L 24.871094 24.894531 Z M 30.105469 25.070312 "/>
<path style=" stroke:none;fill-rule:nonzero;fill:rgb(70.196078%,70.196078%,70.196078%);fill-opacity:1;" d="M 24.871094 4.578125 L 24.910156 14.789062 L 29.742188 24.902344 L 24.882812 24.902344 L 24.871094 29.136719 L 31.59375 29.140625 L 34.734375 36.417969 L 39.84375 36.515625 Z M 24.871094 4.578125 "/>
</g>
</svg>
