<?xml version="1.0" encoding="UTF-8"?>
<svg xmlns="http://www.w3.org/2000/svg" xmlns:xlink="http://www.w3.org/1999/xlink" width="50pt" height="50pt" viewBox="0 0 50 50" version="1.1">
<g id="surface1">
<path style=" stroke:none;fill-rule:nonzero;fill:rgb(35.686275%,25.882353%,50.980392%);fill-opacity:1;" d="M 29.570312 25.625 C 28.660156 25.324219 27.347656 25.390625 25.632812 25.390625 L 18.75 25.390625 L 18.75 34.375 L 26.109375 34.375 C 27.261719 34.375 28.070312 34.25 28.535156 34.164062 C 29.355469 34.019531 30.039062 33.734375 30.589844 33.390625 C 31.140625 33.050781 31.59375 32.53125 31.949219 31.875 C 32.304688 31.222656 32.480469 30.453125 32.480469 29.597656 C 32.480469 28.59375 32.222656 27.824219 31.710938 27.085938 C 31.195312 26.34375 30.484375 25.925781 29.570312 25.625 Z M 28.625 21.519531 C 29.53125 21.25 30.214844 20.78125 30.671875 20.15625 C 31.132812 19.53125 31.359375 18.738281 31.359375 17.796875 C 31.359375 16.902344 31.148438 16.109375 30.71875 15.429688 C 30.289062 14.75 29.679688 14.488281 28.882812 14.238281 C 28.085938 13.984375 26.722656 14.0625 24.789062 14.0625 L 18.75 14.0625 L 18.75 21.875 L 25.230469 21.875 C 26.808594 21.875 27.941406 21.726562 28.625 21.519531 Z M 49.21875 7.273438 C 49.21875 3.6875 46.3125 0.78125 42.726562 0.78125 L 6.882812 0.78125 C 3.296875 0.78125 0.390625 3.6875 0.390625 7.273438 L 0.390625 43.117188 C 0.390625 46.703125 3.296875 49.609375 6.882812 49.609375 L 42.726562 49.609375 C 46.3125 49.609375 49.21875 46.703125 49.21875 43.117188 Z M 35.371094 33.101562 C 34.839844 34.1875 34.183594 35.023438 33.398438 35.609375 C 32.617188 36.195312 31.632812 36.695312 30.453125 36.996094 C 29.273438 37.296875 27.824219 37.5 26.109375 37.5 L 15.234375 37.5 L 15.234375 10.546875 L 25.945312 10.546875 C 28 10.546875 29.648438 10.785156 30.894531 11.328125 C 32.136719 11.875 33.109375 12.695312 33.8125 13.828125 C 34.515625 14.960938 34.867188 16.132812 34.867188 17.371094 C 34.867188 18.519531 34.554688 19.601562 33.929688 20.617188 C 33.308594 21.632812 32.363281 22.449219 31.105469 23.074219 C 32.730469 23.550781 33.984375 24.363281 34.859375 25.515625 C 35.734375 26.664062 36.171875 28.023438 36.171875 29.589844 C 36.171875 30.851562 35.90625 32.019531 35.371094 33.101562 Z M 35.371094 33.101562 "/>
</g>
</svg>
