<?xml version="1.0" encoding="UTF-8"?>
<svg xmlns="http://www.w3.org/2000/svg" xmlns:xlink="http://www.w3.org/1999/xlink" width="50pt" height="50pt" viewBox="0 0 50 50" version="1.1">
<g id="surface1">
<path style=" stroke:none;fill-rule:nonzero;fill:rgb(60.784314%,30.980392%,58.823529%);fill-opacity:1;" d="M 45.078125 11.992188 L 26.210938 1.132812 C 25.898438 0.9375 25.46875 0.859375 25 0.859375 C 24.53125 0.859375 24.101562 0.976562 23.789062 1.132812 L 5.039062 12.03125 C 4.375 12.421875 3.90625 13.398438 3.90625 14.140625 L 3.90625 35.898438 C 3.90625 36.328125 3.984375 36.835938 4.296875 37.265625 L 46.015625 13.046875 C 45.78125 12.578125 45.429688 12.226562 45.078125 11.992188 Z M 45.078125 11.992188 "/>
<path style=" stroke:none;fill-rule:nonzero;fill:rgb(40.784314%,12.941176%,47.843137%);fill-opacity:1;" d="M 4.179688 37.226562 C 4.375 37.539062 4.648438 37.8125 4.921875 37.96875 L 23.75 48.867188 C 24.0625 49.0625 24.492188 49.140625 24.960938 49.140625 C 25.429688 49.140625 25.859375 49.023438 26.171875 48.867188 L 44.921875 37.96875 C 45.585938 37.578125 46.054688 36.601562 46.054688 35.859375 L 46.054688 14.101562 C 46.054688 13.75 46.015625 13.359375 45.820312 13.007812 Z M 4.179688 37.226562 "/>
<path style=" stroke:none;fill-rule:nonzero;fill:rgb(100%,100%,100%);fill-opacity:1;" d="M 33.320312 29.726562 C 31.679688 32.617188 28.554688 34.570312 25 34.570312 C 19.726562 34.570312 15.429688 30.273438 15.429688 25 C 15.429688 19.726562 19.726562 15.429688 25 15.429688 C 28.554688 15.429688 31.679688 17.382812 33.320312 20.3125 L 38.398438 17.382812 C 35.742188 12.734375 30.742188 9.570312 25 9.570312 C 16.484375 9.570312 9.570312 16.484375 9.570312 25 C 9.570312 33.515625 16.484375 40.429688 25 40.429688 C 30.703125 40.429688 35.703125 37.304688 38.359375 32.695312 Z M 37.890625 25.859375 L 38.242188 24.179688 L 36.601562 24.179688 L 36.601562 22.34375 L 38.59375 22.34375 L 39.0625 19.921875 L 40.976562 19.921875 L 40.507812 22.304688 L 41.992188 22.304688 L 42.460938 19.921875 L 44.335938 19.921875 L 43.867188 22.304688 L 44.804688 22.304688 L 44.804688 24.140625 L 43.515625 24.140625 L 43.164062 25.820312 L 44.804688 25.820312 L 44.804688 27.65625 L 42.8125 27.65625 L 42.34375 30 L 40.429688 30 L 40.898438 27.65625 L 39.414062 27.65625 L 38.945312 30 L 37.070312 30 L 37.539062 27.65625 L 36.601562 27.65625 L 36.601562 25.820312 L 37.890625 25.820312 Z M 39.765625 25.859375 L 41.25 25.859375 L 41.601562 24.179688 L 40.117188 24.179688 Z M 39.765625 25.859375 "/>
</g>
</svg>
