<?xml version="1.0" encoding="UTF-8"?>
<svg xmlns="http://www.w3.org/2000/svg" xmlns:xlink="http://www.w3.org/1999/xlink" width="50pt" height="50pt" viewBox="0 0 50 50" version="1.1">
<g id="surface1">
<path style=" stroke:none;fill-rule:nonzero;fill:rgb(94.901961%,94.901961%,94.901961%);fill-opacity:1;" d="M 50 25 C 50 33.039062 46.203125 40.191406 40.308594 44.765625 C 36.078125 48.046875 30.769531 50 25 50 C 19.230469 50 13.921875 48.046875 9.691406 44.765625 C 3.796875 40.191406 0 33.039062 0 25 C 0 11.191406 11.191406 0 25 0 C 38.808594 0 50 11.191406 50 25 Z M 50 25 "/>
<path style=" stroke:none;fill-rule:nonzero;fill:rgb(0%,41.960784%,75.294118%);fill-opacity:1;" d="M 43.164062 11.667969 L 40.308594 44.765625 C 36.078125 48.046875 30.769531 50 25 50 C 19.230469 50 13.921875 48.046875 9.691406 44.765625 L 6.835938 11.667969 Z M 43.164062 11.667969 "/>
<path style=" stroke:none;fill-rule:nonzero;fill:rgb(0%,58.823529%,86.27451%);fill-opacity:1;" d="M 25 14.777344 L 25 49.34375 L 36.941406 45.972656 L 39.605469 14.777344 Z M 25 14.777344 "/>
<path style=" stroke:none;fill-rule:nonzero;fill:rgb(100%,100%,100%);fill-opacity:1;" d="M 35.550781 28.300781 L 26.9375 28.300781 L 35.9375 23.71875 L 36.328125 19.117188 L 13.671875 19.117188 L 14.070312 23.808594 L 23.164062 23.808594 L 14.4375 28.171875 L 14.84375 32.980469 L 30.40625 32.980469 L 29.898438 38.707031 L 25 40.035156 L 19.898438 38.605469 L 19.769531 35.035156 L 15.015625 35.035156 L 15.613281 42.074219 L 25 44.726562 L 34.386719 42.074219 L 35.550781 28.296875 Z M 35.550781 28.300781 "/>
<path style=" stroke:none;fill-rule:nonzero;fill:rgb(13.333333%,12.941176%,13.72549%);fill-opacity:1;" d="M 16.148438 6.566406 L 16.148438 3.300781 L 20.839844 3.300781 L 20.839844 1.53125 L 14.445312 1.53125 L 14.445312 8.332031 L 20.839844 8.332031 L 20.839844 6.566406 Z M 16.148438 6.566406 "/>
<path style=" stroke:none;fill-rule:nonzero;fill:rgb(13.333333%,12.941176%,13.72549%);fill-opacity:1;" d="M 23.589844 4.191406 L 23.589844 3.375 L 28.257812 3.375 L 28.257812 1.53125 L 21.863281 1.53125 L 21.863281 5.75 L 26.445312 5.75 L 26.445312 6.566406 L 21.863281 6.566406 L 21.863281 8.332031 L 28.257812 8.332031 L 28.257812 4.191406 Z M 23.589844 4.191406 "/>
<path style=" stroke:none;fill-rule:nonzero;fill:rgb(13.333333%,12.941176%,13.72549%);fill-opacity:1;" d="M 30.882812 4.191406 L 30.882812 3.375 L 35.550781 3.375 L 35.550781 1.53125 L 29.15625 1.53125 L 29.15625 5.75 L 33.742188 5.75 L 33.742188 6.566406 L 29.15625 6.566406 L 29.15625 8.332031 L 35.550781 8.332031 L 35.550781 4.191406 Z M 30.882812 4.191406 "/>
</g>
</svg>
