<?xml version="1.0" encoding="UTF-8"?>
<svg xmlns="http://www.w3.org/2000/svg" xmlns:xlink="http://www.w3.org/1999/xlink" width="50pt" height="50pt" viewBox="0 0 50 50" version="1.1">
<g id="surface1">
<path style=" stroke:none;fill-rule:nonzero;fill:rgb(7.45098%,51.764706%,78.431373%);fill-opacity:1;" d="M 15.757812 30.542969 L 15.097656 30.542969 L 15.097656 26.773438 C 15.097656 26.476562 15.117188 26.113281 15.152344 25.683594 L 15.136719 25.683594 C 15.074219 25.933594 15.019531 26.117188 14.96875 26.226562 L 13.054688 30.542969 L 12.734375 30.542969 L 10.816406 26.257812 C 10.761719 26.140625 10.703125 25.945312 10.648438 25.683594 L 10.632812 25.683594 C 10.652344 25.910156 10.664062 26.273438 10.664062 26.78125 L 10.664062 30.542969 L 10.03125 30.542969 L 10.03125 24.929688 L 10.898438 24.929688 L 12.621094 28.84375 C 12.75 29.136719 12.835938 29.363281 12.875 29.515625 L 12.902344 29.515625 C 13.015625 29.207031 13.105469 28.976562 13.171875 28.828125 L 14.929688 24.929688 L 15.753906 24.929688 L 15.753906 30.542969 Z M 17.78125 30.542969 L 17.140625 30.542969 L 17.140625 26.53125 L 17.78125 26.53125 Z M 17.894531 25.097656 C 17.894531 25.214844 17.851562 25.3125 17.769531 25.394531 C 17.6875 25.476562 17.589844 25.515625 17.46875 25.515625 C 17.355469 25.515625 17.257812 25.476562 17.175781 25.398438 C 17.09375 25.320312 17.054688 25.21875 17.054688 25.097656 C 17.054688 24.980469 17.09375 24.882812 17.175781 24.800781 C 17.257812 24.722656 17.355469 24.683594 17.46875 24.683594 C 17.585938 24.683594 17.6875 24.722656 17.769531 24.800781 C 17.851562 24.882812 17.894531 24.980469 17.894531 25.097656 "/>
<path style=" stroke:none;fill-rule:nonzero;fill:rgb(7.45098%,51.764706%,78.431373%);fill-opacity:1;" d="M 21.78125 30.355469 C 21.476562 30.546875 21.109375 30.640625 20.683594 30.640625 C 20.109375 30.640625 19.648438 30.449219 19.292969 30.066406 C 18.949219 29.695312 18.777344 29.21875 18.777344 28.632812 C 18.777344 27.976562 18.964844 27.445312 19.34375 27.042969 C 19.71875 26.636719 20.226562 26.433594 20.863281 26.433594 C 21.210938 26.433594 21.523438 26.503906 21.792969 26.640625 L 21.792969 27.296875 C 21.492188 27.085938 21.175781 26.984375 20.835938 26.984375 C 20.429688 26.984375 20.097656 27.125 19.839844 27.410156 C 19.570312 27.703125 19.433594 28.089844 19.433594 28.578125 C 19.433594 29.042969 19.558594 29.414062 19.804688 29.683594 C 20.050781 29.957031 20.382812 30.089844 20.796875 30.089844 C 21.148438 30.089844 21.476562 29.976562 21.78125 29.746094 Z M 24.84375 27.183594 C 24.734375 27.097656 24.570312 27.054688 24.355469 27.054688 C 24.09375 27.054688 23.875 27.171875 23.699219 27.40625 C 23.496094 27.667969 23.398438 28.03125 23.398438 28.5 L 23.398438 30.542969 L 22.753906 30.542969 L 22.753906 26.53125 L 23.398438 26.53125 L 23.398438 27.359375 L 23.410156 27.359375 C 23.507812 27.066406 23.652344 26.84375 23.847656 26.683594 C 24.027344 26.535156 24.234375 26.464844 24.460938 26.464844 C 24.632812 26.464844 24.757812 26.480469 24.84375 26.519531 Z M 28.421875 28.542969 C 28.421875 28.03125 28.304688 27.640625 28.074219 27.371094 C 27.847656 27.113281 27.535156 26.984375 27.128906 26.984375 C 26.730469 26.984375 26.410156 27.113281 26.171875 27.375 C 25.917969 27.652344 25.792969 28.046875 25.792969 28.558594 C 25.792969 29.039062 25.914062 29.417969 26.15625 29.683594 C 26.398438 29.957031 26.722656 30.089844 27.128906 30.089844 C 27.550781 30.089844 27.875 29.953125 28.097656 29.679688 C 28.3125 29.414062 28.421875 29.035156 28.421875 28.542969 M 29.078125 28.523438 C 29.078125 29.160156 28.898438 29.675781 28.539062 30.058594 C 28.179688 30.445312 27.691406 30.636719 27.082031 30.636719 C 26.480469 30.636719 26 30.445312 25.652344 30.058594 C 25.304688 29.6875 25.132812 29.195312 25.132812 28.585938 C 25.132812 27.886719 25.328125 27.347656 25.722656 26.96875 C 26.082031 26.613281 26.570312 26.433594 27.175781 26.433594 C 27.773438 26.433594 28.242188 26.621094 28.578125 26.992188 C 28.910156 27.363281 29.078125 27.871094 29.078125 28.523438 M 32.261719 29.46875 C 32.261719 29.796875 32.140625 30.070312 31.894531 30.285156 C 31.625 30.519531 31.257812 30.636719 30.792969 30.636719 C 30.414062 30.636719 30.082031 30.558594 29.800781 30.398438 L 29.800781 29.707031 C 30.113281 29.960938 30.460938 30.089844 30.839844 30.089844 C 31.347656 30.089844 31.601562 29.902344 31.601562 29.53125 C 31.601562 29.375 31.546875 29.246094 31.433594 29.144531 C 31.320312 29.042969 31.101562 28.917969 30.777344 28.777344 C 30.441406 28.628906 30.203125 28.476562 30.0625 28.320312 C 29.890625 28.136719 29.804688 27.894531 29.804688 27.597656 C 29.804688 27.265625 29.9375 26.988281 30.203125 26.765625 C 30.464844 26.546875 30.804688 26.433594 31.21875 26.433594 C 31.539062 26.433594 31.824219 26.496094 32.078125 26.621094 L 32.078125 27.269531 C 31.8125 27.078125 31.511719 26.984375 31.167969 26.984375 C 30.953125 26.984375 30.785156 27.035156 30.65625 27.140625 C 30.527344 27.242188 30.464844 27.378906 30.464844 27.542969 C 30.464844 27.71875 30.519531 27.859375 30.625 27.957031 C 30.71875 28.046875 30.921875 28.160156 31.226562 28.289062 C 31.570312 28.433594 31.816406 28.582031 31.96875 28.734375 C 32.164062 28.925781 32.261719 29.171875 32.261719 29.46875 M 36.183594 28.542969 C 36.183594 28.03125 36.066406 27.640625 35.835938 27.371094 C 35.609375 27.113281 35.296875 26.984375 34.890625 26.984375 C 34.492188 26.984375 34.171875 27.113281 33.933594 27.375 C 33.679688 27.652344 33.554688 28.046875 33.554688 28.558594 C 33.554688 29.039062 33.675781 29.417969 33.914062 29.683594 C 34.160156 29.957031 34.484375 30.089844 34.890625 30.089844 C 35.3125 30.089844 35.636719 29.953125 35.859375 29.679688 C 36.074219 29.414062 36.183594 29.035156 36.183594 28.542969 M 36.84375 28.523438 C 36.84375 29.160156 36.660156 29.675781 36.300781 30.058594 C 35.941406 30.445312 35.457031 30.636719 34.84375 30.636719 C 34.242188 30.636719 33.761719 30.445312 33.414062 30.058594 C 33.066406 29.6875 32.894531 29.195312 32.894531 28.585938 C 32.894531 27.886719 33.09375 27.347656 33.480469 26.96875 C 33.84375 26.613281 34.328125 26.433594 34.9375 26.433594 C 35.535156 26.433594 36.003906 26.621094 36.339844 26.992188 C 36.671875 27.363281 36.84375 27.871094 36.84375 28.523438 "/>
<path style=" stroke:none;fill-rule:nonzero;fill:rgb(7.45098%,51.764706%,78.431373%);fill-opacity:1;" d="M 39.671875 25.171875 C 39.542969 25.101562 39.402344 25.066406 39.242188 25.066406 C 38.792969 25.066406 38.570312 25.347656 38.570312 25.914062 L 38.570312 26.53125 L 39.511719 26.53125 L 39.511719 27.078125 L 38.570312 27.078125 L 38.570312 30.542969 L 37.929688 30.542969 L 37.929688 27.078125 L 37.246094 27.078125 L 37.246094 26.53125 L 37.929688 26.53125 L 37.929688 25.882812 C 37.929688 25.441406 38.0625 25.09375 38.339844 24.847656 C 38.574219 24.628906 38.863281 24.523438 39.203125 24.523438 C 39.402344 24.523438 39.558594 24.546875 39.667969 24.589844 L 39.667969 25.171875 Z M 42.203125 30.5 C 42.050781 30.589844 41.851562 30.632812 41.601562 30.632812 C 40.898438 30.632812 40.550781 30.238281 40.550781 29.449219 L 40.550781 27.078125 L 39.863281 27.078125 L 39.863281 26.53125 L 40.550781 26.53125 L 40.550781 25.554688 L 41.195312 25.347656 L 41.195312 26.53125 L 42.203125 26.53125 L 42.203125 27.078125 L 41.195312 27.078125 L 41.195312 29.339844 C 41.195312 29.609375 41.238281 29.800781 41.328125 29.910156 C 41.421875 30.027344 41.574219 30.082031 41.789062 30.082031 C 41.945312 30.082031 42.085938 30.039062 42.203125 29.953125 Z M 7.515625 46.1875 C 7.515625 46.503906 7.402344 46.773438 7.175781 47.003906 C 6.949219 47.230469 6.675781 47.347656 6.355469 47.347656 C 6.039062 47.347656 5.773438 47.230469 5.554688 47.003906 C 5.335938 46.773438 5.226562 46.503906 5.226562 46.1875 C 5.226562 45.867188 5.335938 45.59375 5.554688 45.367188 C 5.773438 45.140625 6.039062 45.027344 6.355469 45.027344 C 6.675781 45.027344 6.949219 45.140625 7.175781 45.371094 C 7.402344 45.601562 7.515625 45.875 7.515625 46.1875 "/>
<path style=" stroke:none;fill-rule:nonzero;fill:rgb(7.45098%,51.764706%,78.431373%);fill-opacity:1;" d="M 21.882812 47.113281 L 19.789062 47.113281 L 12.191406 35.378906 C 12.015625 35.097656 11.863281 34.789062 11.730469 34.457031 L 11.667969 34.457031 C 11.722656 34.769531 11.75 35.445312 11.75 36.476562 L 11.75 47.113281 L 10.027344 47.113281 L 10.027344 32.394531 L 12.265625 32.394531 L 19.632812 43.941406 C 19.925781 44.398438 20.128906 44.726562 20.230469 44.921875 L 20.269531 44.921875 C 20.203125 44.5 20.167969 43.777344 20.167969 42.757812 L 20.167969 32.394531 L 21.882812 32.394531 Z M 32.941406 47.113281 L 25.140625 47.113281 L 25.140625 32.394531 L 32.601562 32.394531 L 32.601562 33.953125 L 26.863281 33.953125 L 26.863281 38.847656 L 32.183594 38.847656 L 32.183594 40.410156 L 26.863281 40.410156 L 26.863281 45.550781 L 32.941406 45.550781 Z M 44.773438 33.953125 L 40.535156 33.953125 L 40.535156 47.113281 L 38.808594 47.113281 L 38.808594 33.953125 L 34.5625 33.953125 L 34.5625 32.390625 L 44.773438 32.390625 Z M 44.773438 33.953125 "/>
<path style=" stroke:none;fill-rule:evenodd;fill:rgb(7.45098%,51.764706%,78.431373%);fill-opacity:1;" d="M 32.074219 18.097656 C 32.261719 17.617188 32.472656 17.140625 32.632812 16.652344 C 33.523438 13.878906 34.410156 11.105469 35.289062 8.328125 C 35.625 7.261719 35.996094 6.210938 36.664062 5.292969 C 37.714844 3.84375 39.179688 3.085938 40.914062 2.820312 C 41.59375 2.71875 42.285156 2.667969 42.976562 2.664062 C 45.03125 2.644531 47.089844 2.65625 49.148438 2.660156 C 49.257812 2.660156 49.367188 2.667969 49.523438 2.679688 C 49.472656 2.796875 49.445312 2.882812 49.398438 2.960938 C 48.636719 4.328125 47.886719 5.699219 47.101562 7.050781 C 45.730469 9.402344 44.359375 11.753906 42.949219 14.082031 C 42.042969 15.574219 41.058594 17.019531 39.945312 18.367188 C 39.125 19.363281 38.257812 20.316406 37.15625 21.011719 C 36.402344 21.488281 35.601562 21.765625 34.6875 21.761719 C 31.453125 21.742188 28.21875 21.757812 24.988281 21.75 C 24.027344 21.75 23.203125 21.382812 22.503906 20.734375 C 21.503906 19.804688 20.90625 18.621094 20.417969 17.371094 C 19.523438 15.09375 19.023438 12.703125 18.449219 10.335938 C 18.183594 9.226562 17.875 8.128906 17.585938 7.023438 C 17.566406 6.953125 17.53125 6.886719 17.488281 6.78125 L 17.261719 6.996094 C 16 8.246094 14.890625 9.628906 13.898438 11.09375 C 13.625 11.496094 13.535156 12.023438 13.382812 12.5 C 12.828125 14.246094 12.320312 16.007812 11.71875 17.738281 C 11.140625 19.394531 10.109375 20.710938 8.492188 21.492188 C 7.546875 21.945312 6.535156 22.191406 5.488281 22.214844 C 3.933594 22.25 2.378906 22.253906 0.820312 22.269531 C 0.449219 22.269531 0.433594 22.242188 0.53125 21.882812 C 1.195312 19.40625 2.042969 16.992188 3.101562 14.65625 C 4.191406 12.25 5.476562 9.953125 7.097656 7.851562 C 8.199219 6.425781 9.417969 5.105469 10.941406 4.109375 C 11.714844 3.605469 12.535156 3.207031 13.472656 3.101562 C 13.625 3.082031 13.78125 3.074219 13.9375 3.074219 C 17.246094 3.070312 20.558594 3.105469 23.871094 3.058594 C 25.648438 3.03125 26.933594 3.78125 27.894531 5.210938 C 28.496094 6.101562 28.921875 7.070312 29.285156 8.074219 C 30.011719 10.097656 30.460938 12.195312 30.972656 14.277344 C 31.265625 15.46875 31.589844 16.652344 31.902344 17.839844 C 31.925781 17.929688 31.964844 18.011719 31.996094 18.101562 Z M 32.074219 18.097656 "/>
</g>
</svg>
