<?xml version="1.0" encoding="UTF-8"?>
<svg xmlns="http://www.w3.org/2000/svg" xmlns:xlink="http://www.w3.org/1999/xlink" width="50pt" height="50pt" viewBox="0 0 50 50" version="1.1">
<g id="surface1">
<path style=" stroke:none;fill-rule:nonzero;fill:rgb(95.294118%,30.980392%,16.078431%);fill-opacity:1;" d="M 48.726562 22.804688 L 27.195312 1.273438 C 25.957031 0.0351562 23.945312 0.0351562 22.703125 1.273438 L 18.234375 5.746094 L 23.90625 11.417969 C 25.222656 10.972656 26.734375 11.269531 27.785156 12.320312 C 28.839844 13.378906 29.136719 14.902344 28.679688 16.226562 L 34.148438 21.691406 C 35.46875 21.234375 36.996094 21.53125 38.050781 22.585938 C 39.527344 24.0625 39.527344 26.453125 38.050781 27.929688 C 36.574219 29.40625 34.183594 29.40625 32.707031 27.929688 C 31.597656 26.820312 31.320312 25.1875 31.882812 23.820312 L 26.785156 18.722656 L 26.785156 32.136719 C 27.144531 32.316406 27.484375 32.554688 27.785156 32.851562 C 29.261719 34.328125 29.261719 36.71875 27.785156 38.195312 C 26.308594 39.671875 23.917969 39.671875 22.441406 38.195312 C 20.964844 36.71875 20.964844 34.328125 22.441406 32.851562 C 22.808594 32.488281 23.230469 32.210938 23.679688 32.027344 L 23.679688 18.488281 C 23.230469 18.304688 22.808594 18.03125 22.441406 17.664062 C 21.324219 16.546875 21.054688 14.90625 21.628906 13.535156 L 16.039062 7.941406 L 1.273438 22.703125 C 0.0351562 23.945312 0.0351562 25.957031 1.273438 27.195312 L 22.804688 48.726562 C 24.042969 49.964844 26.054688 49.964844 27.296875 48.726562 L 48.726562 27.296875 C 49.964844 26.054688 49.964844 24.042969 48.726562 22.804688 Z M 48.726562 22.804688 "/>
</g>
</svg>
