<?xml version="1.0" encoding="UTF-8"?>
<svg xmlns="http://www.w3.org/2000/svg" xmlns:xlink="http://www.w3.org/1999/xlink" width="50pt" height="50pt" viewBox="0 0 50 50" version="1.1">
<g id="surface1">
<path style=" stroke:none;fill-rule:nonzero;fill:rgb(94.901961%,94.901961%,94.901961%);fill-opacity:1;" d="M 50 25 C 50 33.039062 46.203125 40.191406 40.308594 44.765625 C 36.078125 48.046875 30.769531 50 25 50 C 19.285156 50 14.015625 48.082031 9.804688 44.851562 C 3.84375 40.285156 0 33.089844 0 25 C 0 11.191406 11.191406 0 25 0 C 38.808594 0 50 11.191406 50 25 Z M 50 25 "/>
<path style=" stroke:none;fill-rule:nonzero;fill:rgb(90.196078%,29.803922%,9.411765%);fill-opacity:1;" d="M 43.164062 11.667969 L 40.308594 44.765625 C 36.078125 48.046875 30.769531 50 25 50 C 19.285156 50 14.015625 48.082031 9.804688 44.851562 L 6.945312 11.667969 Z M 43.164062 11.667969 "/>
<path style=" stroke:none;fill-rule:nonzero;fill:rgb(95.294118%,39.607843%,9.411765%);fill-opacity:1;" d="M 25.054688 14.769531 L 25.054688 49.234375 L 36.960938 45.875 L 39.613281 14.769531 Z M 25.054688 14.769531 "/>
<path style=" stroke:none;fill-rule:nonzero;fill:rgb(100%,100%,100%);fill-opacity:1;" d="M 13.761719 19.09375 L 14.925781 32.917969 L 30.445312 32.917969 L 29.9375 38.628906 L 25.054688 39.953125 L 19.96875 38.527344 L 19.839844 34.96875 L 15.101562 34.96875 L 15.695312 41.988281 L 25.054688 44.632812 L 34.414062 41.988281 L 35.574219 28.25 L 19.230469 28.25 L 18.824219 23.773438 L 35.960938 23.683594 L 36.347656 19.09375 Z M 13.761719 19.09375 "/>
<path style=" stroke:none;fill-rule:nonzero;fill:rgb(0%,0%,0%);fill-opacity:1;" d="M 14.761719 1.640625 L 14.761719 4.015625 L 12.492188 4.015625 L 12.492188 1.640625 L 10.382812 1.640625 L 10.382812 8.449219 L 12.492188 8.449219 L 12.492188 6.230469 L 14.761719 6.230469 L 14.761719 8.449219 L 16.871094 8.449219 L 16.871094 1.640625 Z M 14.761719 1.640625 "/>
<path style=" stroke:none;fill-rule:nonzero;fill:rgb(0%,0%,0%);fill-opacity:1;" d="M 24.367188 1.640625 L 17.875 1.640625 L 17.875 4.015625 L 19.988281 4.015625 L 19.988281 8.5 L 22.257812 8.5 L 22.257812 4.015625 L 24.367188 4.015625 Z M 24.367188 1.640625 "/>
<path style=" stroke:none;fill-rule:nonzero;fill:rgb(0%,0%,0%);fill-opacity:1;" d="M 36.453125 6.335938 L 36.453125 1.691406 L 34.183594 1.691406 L 34.183594 8.5 L 39.726562 8.5 L 39.726562 6.335938 Z M 36.453125 6.335938 "/>
<path style=" stroke:none;fill-rule:nonzero;fill:rgb(0%,0%,0%);fill-opacity:1;" d="M 30.753906 1.691406 L 29.171875 4.121094 L 27.585938 1.691406 L 25.316406 1.691406 L 25.316406 8.5 L 27.585938 8.5 L 27.585938 5.125 L 29.171875 7.550781 L 30.753906 5.125 L 30.753906 8.5 L 33.023438 8.5 L 33.023438 1.691406 Z M 30.753906 1.691406 "/>
</g>
</svg>
