<?xml version="1.0" encoding="UTF-8"?>
<svg xmlns="http://www.w3.org/2000/svg" xmlns:xlink="http://www.w3.org/1999/xlink" width="50pt" height="50pt" viewBox="0 0 50 50" version="1.1">
<g id="surface1">
<path style=" stroke:none;fill-rule:nonzero;fill:rgb(94.117647%,85.882353%,30.980392%);fill-opacity:1;" d="M 0.550781 0.550781 L 49.449219 0.550781 L 49.449219 49.449219 L 0.550781 49.449219 Z M 0.550781 0.550781 "/>
<path style=" stroke:none;fill-rule:nonzero;fill:rgb(19.607843%,20%,18.823529%);fill-opacity:1;" d="M 45.449219 37.789062 C 45.089844 35.554688 43.636719 33.683594 39.328125 31.9375 C 37.828125 31.246094 36.160156 30.753906 35.664062 29.621094 C 35.488281 28.960938 35.464844 28.589844 35.574219 28.1875 C 35.894531 26.890625 37.445312 26.488281 38.671875 26.859375 C 39.460938 27.125 40.210938 27.734375 40.660156 28.703125 C 42.769531 27.339844 42.765625 27.347656 44.238281 26.410156 C 43.699219 25.570312 43.414062 25.1875 43.058594 24.828125 C 41.789062 23.410156 40.0625 22.679688 37.296875 22.738281 L 35.855469 22.921875 C 34.472656 23.273438 33.15625 23.996094 32.386719 24.96875 C 30.070312 27.59375 30.730469 32.191406 33.546875 34.082031 C 36.324219 36.164062 40.402344 36.640625 40.921875 38.585938 C 41.429688 40.972656 39.167969 41.742188 36.921875 41.46875 C 35.269531 41.125 34.347656 40.285156 33.355469 38.753906 C 31.523438 39.816406 31.523438 39.816406 29.640625 40.898438 C 30.085938 41.875 30.554688 42.316406 31.304688 43.160156 C 34.847656 46.753906 43.710938 46.578125 45.300781 41.140625 C 45.363281 40.953125 45.792969 39.707031 45.449219 37.789062 Z M 27.132812 23.023438 L 22.558594 23.023438 L 22.542969 34.851562 C 22.542969 37.363281 22.671875 39.671875 22.261719 40.375 C 21.59375 41.765625 19.859375 41.59375 19.070312 41.324219 C 18.265625 40.929688 17.855469 40.367188 17.382812 39.574219 C 17.25 39.34375 17.152344 39.167969 17.121094 39.15625 L 13.402344 41.433594 C 14.019531 42.699219 14.933594 43.800781 16.097656 44.519531 C 17.839844 45.5625 20.183594 45.882812 22.632812 45.320312 C 24.230469 44.859375 25.605469 43.894531 26.324219 42.429688 C 27.367188 40.511719 27.144531 38.1875 27.132812 35.617188 C 27.15625 31.425781 27.132812 27.230469 27.132812 23.023438 Z M 27.132812 23.023438 "/>
</g>
</svg>
