<?xml version="1.0" encoding="UTF-8"?>
<svg xmlns="http://www.w3.org/2000/svg" xmlns:xlink="http://www.w3.org/1999/xlink" width="50pt" height="50pt" viewBox="0 0 50 50" version="1.1">
<g id="surface1">
<path style=" stroke:none;fill-rule:nonzero;fill:rgb(38.039216%,85.490196%,98.431373%);fill-opacity:1;" d="M 29.453125 25 C 29.453125 27.460938 27.460938 29.453125 25 29.453125 C 22.539062 29.453125 20.546875 27.460938 20.546875 25 C 20.546875 22.539062 22.539062 20.546875 25 20.546875 C 27.460938 20.546875 29.453125 22.539062 29.453125 25 Z M 29.453125 25 "/>
<path style=" stroke:none;fill-rule:nonzero;fill:rgb(38.039216%,85.490196%,98.431373%);fill-opacity:1;" d="M 41.914062 17.65625 C 41.054688 17.34375 40.15625 17.03125 39.21875 16.757812 C 39.453125 15.820312 39.648438 14.882812 39.804688 13.984375 C 40.625 8.828125 39.726562 5.195312 37.226562 3.789062 C 36.484375 3.359375 35.664062 3.164062 34.726562 3.164062 C 31.992188 3.164062 28.515625 5.195312 25 8.59375 C 21.484375 5.195312 18.007812 3.164062 15.273438 3.164062 C 14.335938 3.164062 13.515625 3.359375 12.773438 3.789062 C 10.273438 5.234375 9.375 8.867188 10.195312 13.984375 C 10.351562 14.882812 10.546875 15.820312 10.78125 16.757812 C 9.84375 17.03125 8.945312 17.304688 8.085938 17.65625 C 3.203125 19.53125 0.546875 22.109375 0.546875 25 C 0.546875 27.890625 3.242188 30.46875 8.085938 32.34375 C 8.945312 32.65625 9.84375 32.96875 10.78125 33.242188 C 10.546875 34.179688 10.351562 35.117188 10.195312 36.015625 C 9.375 41.171875 10.273438 44.804688 12.773438 46.210938 C 13.515625 46.640625 14.335938 46.835938 15.273438 46.835938 C 18.046875 46.835938 21.523438 44.804688 25 41.40625 C 28.515625 44.804688 31.992188 46.835938 34.726562 46.835938 C 35.664062 46.835938 36.484375 46.640625 37.226562 46.210938 C 39.726562 44.765625 40.625 41.132812 39.804688 36.015625 C 39.648438 35.117188 39.453125 34.179688 39.21875 33.242188 C 40.15625 32.96875 41.054688 32.695312 41.914062 32.34375 C 46.796875 30.46875 49.453125 27.890625 49.453125 25 C 49.453125 22.109375 46.796875 19.53125 41.914062 17.65625 Z M 36.132812 5.742188 C 37.734375 6.679688 38.28125 9.570312 37.617188 13.671875 C 37.5 14.492188 37.304688 15.351562 37.070312 16.25 C 35.039062 15.78125 32.890625 15.46875 30.625 15.273438 C 29.296875 13.398438 27.929688 11.71875 26.5625 10.195312 C 29.453125 7.34375 32.382812 5.390625 34.765625 5.390625 C 35.273438 5.390625 35.742188 5.507812 36.132812 5.742188 Z M 31.757812 28.90625 C 31.054688 30.15625 30.234375 31.40625 29.375 32.65625 C 27.929688 32.773438 26.484375 32.8125 25 32.8125 C 23.476562 32.8125 22.03125 32.773438 20.625 32.65625 C 19.765625 31.40625 18.984375 30.15625 18.28125 28.90625 C 17.539062 27.617188 16.835938 26.289062 16.210938 25 C 16.835938 23.710938 17.539062 22.382812 18.28125 21.09375 C 18.984375 19.84375 19.804688 18.59375 20.664062 17.34375 C 22.109375 17.226562 23.554688 17.1875 25.039062 17.1875 C 26.5625 17.1875 28.007812 17.226562 29.414062 17.34375 C 30.273438 18.59375 31.054688 19.84375 31.757812 21.09375 C 32.5 22.382812 33.203125 23.710938 33.828125 25 C 33.164062 26.289062 32.5 27.578125 31.757812 28.90625 Z M 35 27.617188 C 35.585938 28.984375 36.054688 30.3125 36.484375 31.640625 C 35.15625 31.953125 33.75 32.1875 32.265625 32.382812 C 32.734375 31.640625 33.242188 30.859375 33.671875 30.039062 C 34.140625 29.21875 34.570312 28.398438 35 27.617188 Z M 25 38.203125 C 24.0625 37.1875 23.164062 36.09375 22.304688 34.960938 C 23.203125 35 24.101562 35.039062 25 35.039062 C 25.898438 35.039062 26.796875 35 27.695312 34.960938 C 26.835938 36.09375 25.9375 37.1875 25 38.203125 Z M 17.734375 32.34375 C 16.25 32.148438 14.84375 31.914062 13.515625 31.601562 C 13.945312 30.3125 14.414062 28.945312 15 27.578125 C 15.429688 28.359375 15.859375 29.179688 16.328125 29.960938 C 16.796875 30.820312 17.265625 31.5625 17.734375 32.34375 Z M 15 22.382812 C 14.414062 21.015625 13.945312 19.6875 13.515625 18.359375 C 14.84375 18.046875 16.25 17.8125 17.734375 17.617188 C 17.265625 18.359375 16.757812 19.140625 16.328125 19.960938 C 15.859375 20.78125 15.429688 21.601562 15 22.382812 Z M 25 11.796875 C 25.9375 12.8125 26.835938 13.90625 27.695312 15.039062 C 26.796875 15 25.898438 14.960938 25 14.960938 C 24.101562 14.960938 23.203125 15 22.304688 15.039062 C 23.164062 13.90625 24.0625 12.8125 25 11.796875 Z M 33.671875 20 L 32.265625 17.65625 C 33.75 17.851562 35.15625 18.085938 36.484375 18.398438 C 36.054688 19.6875 35.585938 21.054688 35 22.421875 C 34.570312 21.601562 34.140625 20.78125 33.671875 20 Z M 12.382812 13.671875 C 11.71875 9.570312 12.265625 6.679688 13.867188 5.742188 C 14.257812 5.507812 14.726562 5.390625 15.234375 5.390625 C 17.578125 5.390625 20.507812 7.304688 23.4375 10.195312 C 22.070312 11.679688 20.703125 13.398438 19.375 15.273438 C 17.109375 15.46875 14.960938 15.820312 12.929688 16.25 C 12.695312 15.351562 12.539062 14.492188 12.382812 13.671875 Z M 2.734375 25 C 2.734375 23.164062 4.960938 21.210938 8.867188 19.765625 C 9.648438 19.453125 10.507812 19.179688 11.367188 18.945312 C 11.992188 20.898438 12.773438 22.96875 13.710938 25.039062 C 12.773438 27.109375 11.953125 29.140625 11.367188 31.09375 C 5.976562 29.53125 2.734375 27.1875 2.734375 25 Z M 13.867188 44.257812 C 12.265625 43.320312 11.71875 40.429688 12.382812 36.328125 C 12.5 35.507812 12.695312 34.648438 12.929688 33.75 C 14.960938 34.21875 17.109375 34.53125 19.375 34.726562 C 20.703125 36.601562 22.070312 38.28125 23.4375 39.804688 C 20.546875 42.65625 17.617188 44.609375 15.234375 44.609375 C 14.726562 44.609375 14.257812 44.492188 13.867188 44.257812 Z M 37.617188 36.328125 C 38.28125 40.429688 37.734375 43.320312 36.132812 44.257812 C 35.742188 44.492188 35.273438 44.609375 34.765625 44.609375 C 32.421875 44.609375 29.492188 42.695312 26.5625 39.804688 C 27.929688 38.320312 29.296875 36.601562 30.625 34.726562 C 32.890625 34.53125 35.039062 34.179688 37.070312 33.75 C 37.304688 34.648438 37.460938 35.507812 37.617188 36.328125 Z M 41.132812 30.234375 C 40.351562 30.546875 39.492188 30.820312 38.632812 31.054688 C 38.007812 29.101562 37.226562 27.03125 36.289062 24.960938 C 37.226562 22.890625 38.046875 20.859375 38.632812 18.90625 C 44.023438 20.46875 47.265625 22.8125 47.265625 25 C 47.265625 26.835938 45 28.789062 41.132812 30.234375 Z M 41.132812 30.234375 "/>
</g>
</svg>
