<?xml version="1.0" encoding="UTF-8"?>
<svg xmlns="http://www.w3.org/2000/svg" xmlns:xlink="http://www.w3.org/1999/xlink" width="40pt" height="60pt" viewBox="0 0 40 60" version="1.1">
<defs>
<linearGradient id="linear0" gradientUnits="userSpaceOnUse" x1="0.176327" y1="0.222857" x2="0" y2="0.777143" gradientTransform="matrix(11.960938,0,0,15.902344,0.300781,22.742187)">
<stop offset="0" style="stop-color:rgb(66.666667%,80.784314%,21.176471%);stop-opacity:1;"/>
<stop offset="1" style="stop-color:rgb(18.431373%,62.745098%,25.882353%);stop-opacity:1;"/>
</linearGradient>
<linearGradient id="linear1" gradientUnits="userSpaceOnUse" x1="0" y1="0.303118" x2="1" y2="0.45427" gradientTransform="matrix(30.144531,0,0,47.546875,9.765625,12.34375)">
<stop offset="0" style="stop-color:rgb(47.45098%,66.27451%,20%);stop-opacity:1;"/>
<stop offset="0.13" style="stop-color:rgb(43.921569%,63.921569%,20%);stop-opacity:1;"/>
<stop offset="0.34" style="stop-color:rgb(33.333333%,57.647059%,19.607843%);stop-opacity:1;"/>
<stop offset="0.58" style="stop-color:rgb(15.294118%,48.235294%,18.431373%);stop-opacity:1;"/>
<stop offset="0.86" style="stop-color:rgb(0%,37.254902%,15.294118%);stop-opacity:1;"/>
<stop offset="1" style="stop-color:rgb(0%,31.372549%,12.54902%);stop-opacity:1;"/>
</linearGradient>
<linearGradient id="linear2" gradientUnits="userSpaceOnUse" x1="0.137968" y1="0" x2="0.644963" y2="1" gradientTransform="matrix(29.746094,0,0,25.136719,9.765625,15.625)">
<stop offset="0" style="stop-color:rgb(47.45098%,67.058824%,20.784314%);stop-opacity:1;"/>
<stop offset="0.53" style="stop-color:rgb(48.627451%,72.941176%,23.921569%);stop-opacity:1;"/>
<stop offset="1" style="stop-color:rgb(0%,66.666667%,29.411765%);stop-opacity:1;"/>
</linearGradient>
</defs>
<g id="surface1">
<path style=" stroke:none;fill-rule:nonzero;fill:rgb(48.627451%,72.941176%,23.921569%);fill-opacity:1;" d="M 39.511719 35.804688 C 38.390625 30.253906 34.964844 25.523438 30.261719 22.632812 C 30.261719 22.632812 30.257812 22.632812 30.257812 22.628906 C 30.253906 22.628906 30.253906 22.628906 30.25 22.628906 C 30.25 22.625 30.25 22.625 30.25 22.625 C 29.8125 22.359375 29.367188 22.109375 28.910156 21.875 L 16.3125 15.625 L 15.636719 15.289062 C 15.597656 15.269531 15.558594 15.25 15.519531 15.230469 C 15.515625 15.226562 15.511719 15.226562 15.511719 15.226562 L 15.507812 15.226562 C 15.507812 15.222656 15.503906 15.222656 15.5 15.222656 C 15.5 15.21875 15.496094 15.21875 15.492188 15.21875 C 15.488281 15.214844 15.488281 15.214844 15.484375 15.214844 C 15.484375 15.214844 15.484375 15.214844 15.484375 15.210938 C 15.480469 15.210938 15.480469 15.210938 15.476562 15.210938 C 15.476562 15.210938 15.476562 15.207031 15.476562 15.207031 C 15.472656 15.207031 15.472656 15.207031 15.46875 15.207031 C 15.46875 15.207031 15.46875 15.203125 15.46875 15.203125 C 15.464844 15.203125 15.464844 15.203125 15.464844 15.203125 C 15.460938 15.203125 15.460938 15.199219 15.457031 15.199219 C 14.148438 14.535156 13.03125 13.546875 12.214844 12.34375 C 11.289062 10.980469 10.75 9.339844 10.75 7.570312 C 10.75 4.289062 12.613281 1.4375 15.355469 0 L 11.289062 2.054688 C 4.59375 5.363281 0 12.203125 0 20.109375 L 0.300781 23.578125 C 0.308594 23.578125 0.3125 23.578125 0.316406 23.582031 C 0.3125 23.578125 0.308594 23.578125 0.300781 23.578125 C 1.398438 29.839844 5.410156 35.109375 10.910156 37.96875 C 10.914062 37.96875 10.914062 37.972656 10.917969 37.972656 C 10.921875 37.976562 10.921875 37.976562 10.925781 37.976562 C 10.929688 37.980469 10.929688 37.980469 10.933594 37.980469 C 10.933594 37.980469 10.933594 37.984375 10.933594 37.984375 C 10.941406 37.988281 10.949219 37.988281 10.957031 37.992188 C 10.957031 37.996094 10.957031 37.996094 10.957031 37.996094 C 10.960938 37.996094 10.960938 37.996094 10.964844 37.996094 C 10.964844 38 10.964844 38 10.96875 38 C 10.96875 38 10.972656 38 10.972656 38.003906 C 10.972656 38.003906 10.976562 38.003906 10.976562 38.003906 C 10.976562 38.003906 10.980469 38.007812 10.980469 38.007812 C 10.984375 38.007812 10.984375 38.007812 10.988281 38.007812 C 10.988281 38.011719 10.988281 38.011719 10.988281 38.011719 C 10.992188 38.011719 10.996094 38.015625 11 38.015625 L 12.261719 38.644531 C 12.261719 38.640625 12.257812 38.636719 12.257812 38.632812 C 12.257812 38.636719 12.261719 38.640625 12.261719 38.644531 L 13.765625 39.386719 L 24.273438 44.601562 C 27.167969 45.988281 29.160156 48.921875 29.160156 52.316406 L 29.160156 52.335938 C 29.160156 52.339844 29.160156 52.339844 29.160156 52.34375 L 29.160156 52.375 C 29.160156 52.378906 29.160156 52.378906 29.160156 52.382812 L 29.160156 52.394531 C 29.160156 52.398438 29.160156 52.398438 29.160156 52.398438 L 29.160156 52.414062 C 29.160156 52.414062 29.160156 52.417969 29.160156 52.417969 L 29.160156 52.429688 C 29.160156 52.429688 29.160156 52.433594 29.160156 52.433594 L 29.160156 52.4375 C 29.160156 52.441406 29.160156 52.449219 29.160156 52.453125 L 29.160156 52.457031 C 29.125 54.667969 28.242188 56.675781 26.820312 58.175781 C 26.167969 58.863281 25.40625 59.445312 24.554688 59.890625 L 27.167969 58.570312 L 28.621094 57.835938 C 35.316406 54.527344 39.910156 47.683594 39.910156 39.78125 L 39.511719 35.804688 "/>
<path style=" stroke:none;fill-rule:nonzero;fill:rgb(77.254902%,84.705882%,24.313725%);fill-opacity:1;" d="M 0 20.109375 C 0 12.203125 4.59375 5.363281 11.289062 2.054688 L 15.355469 0 C 12.613281 1.4375 10.75 4.289062 10.75 7.570312 C 10.75 9.339844 11.289062 10.980469 12.214844 12.34375 C 10.835938 15.757812 10.035156 19.257812 9.765625 22.742188 C 8.023438 23.617188 6.058594 24.105469 3.988281 24.105469 C 3.789062 24.105469 3.589844 24.101562 3.386719 24.089844 C 2.316406 24.042969 1.285156 23.867188 0.300781 23.578125 Z M 29.160156 52.324219 L 29.160156 52.316406 Z M 29.160156 52.335938 L 29.160156 52.328125 Z M 29.160156 52.34375 C 29.160156 52.339844 29.160156 52.339844 29.160156 52.335938 C 29.160156 52.339844 29.160156 52.339844 29.160156 52.34375 Z M 29.160156 52.351562 L 29.160156 52.347656 Z M 29.160156 52.363281 L 29.160156 52.355469 Z M 29.160156 52.371094 L 29.160156 52.367188 Z M 29.160156 52.382812 C 29.160156 52.378906 29.160156 52.378906 29.160156 52.375 C 29.160156 52.378906 29.160156 52.378906 29.160156 52.382812 Z M 29.160156 52.390625 L 29.160156 52.386719 Z M 29.160156 52.398438 C 29.160156 52.398438 29.160156 52.398438 29.160156 52.394531 C 29.160156 52.398438 29.160156 52.398438 29.160156 52.398438 Z M 29.160156 52.410156 L 29.160156 52.40625 Z M 29.160156 52.417969 C 29.160156 52.417969 29.160156 52.414062 29.160156 52.414062 C 29.160156 52.417969 29.160156 52.417969 29.160156 52.417969 Z M 29.160156 52.429688 L 29.160156 52.425781 Z M 29.160156 52.4375 L 29.160156 52.433594 Z M 29.160156 52.457031 L 29.160156 52.453125 Z M 29.160156 52.457031 "/>
<path style=" stroke:none;fill-rule:nonzero;fill:url(#linear0);" d="M 12.261719 38.644531 L 11 38.015625 C 10.996094 38.015625 10.992188 38.011719 10.988281 38.011719 C 10.988281 38.011719 10.988281 38.011719 10.988281 38.007812 C 10.984375 38.007812 10.984375 38.007812 10.980469 38.007812 C 10.980469 38.007812 10.976562 38.003906 10.976562 38.003906 C 10.976562 38.003906 10.972656 38.003906 10.972656 38.003906 C 10.972656 38 10.96875 38 10.96875 38 C 10.964844 38 10.964844 38 10.964844 37.996094 C 10.960938 37.996094 10.960938 37.996094 10.957031 37.996094 C 10.957031 37.996094 10.957031 37.996094 10.957031 37.992188 C 10.949219 37.988281 10.941406 37.988281 10.933594 37.984375 C 10.933594 37.984375 10.933594 37.980469 10.933594 37.980469 C 10.929688 37.980469 10.929688 37.980469 10.925781 37.976562 C 10.921875 37.976562 10.921875 37.976562 10.917969 37.972656 C 10.914062 37.972656 10.914062 37.96875 10.910156 37.96875 C 5.410156 35.109375 1.398438 29.839844 0.300781 23.578125 C 1.285156 23.863281 2.316406 24.042969 3.386719 24.089844 C 3.589844 24.097656 3.789062 24.105469 3.988281 24.105469 C 6.058594 24.105469 8.023438 23.613281 9.765625 22.742188 C 9.339844 28.226562 10.230469 33.664062 12.261719 38.644531 "/>
<path style=" stroke:none;fill-rule:nonzero;fill:url(#linear1);" d="M 16.3125 15.625 L 15.636719 15.289062 C 15.597656 15.269531 15.558594 15.25 15.519531 15.230469 C 15.515625 15.226562 15.511719 15.226562 15.511719 15.226562 L 15.507812 15.226562 C 15.507812 15.222656 15.503906 15.222656 15.5 15.222656 C 15.5 15.21875 15.496094 15.21875 15.492188 15.21875 C 15.488281 15.214844 15.488281 15.214844 15.484375 15.214844 C 15.484375 15.214844 15.484375 15.214844 15.484375 15.210938 C 15.480469 15.210938 15.480469 15.210938 15.476562 15.210938 C 15.476562 15.210938 15.476562 15.207031 15.476562 15.207031 C 15.472656 15.207031 15.472656 15.207031 15.46875 15.207031 C 15.46875 15.207031 15.46875 15.203125 15.46875 15.203125 C 15.464844 15.203125 15.464844 15.203125 15.464844 15.203125 C 15.460938 15.203125 15.460938 15.199219 15.457031 15.199219 C 14.148438 14.535156 13.03125 13.546875 12.214844 12.34375 C 10.835938 15.757812 10.035156 19.257812 9.765625 22.742188 C 12.101562 21.578125 14.035156 19.722656 15.285156 17.4375 Z M 39.511719 35.804688 C 34.71875 38.941406 28.984375 40.761719 22.859375 40.761719 C 22.394531 40.761719 21.925781 40.75 21.453125 40.730469 C 18.78125 40.609375 16.203125 40.144531 13.765625 39.386719 L 24.273438 44.601562 C 27.167969 45.988281 29.160156 48.921875 29.160156 52.316406 L 29.160156 52.335938 C 29.160156 52.339844 29.160156 52.339844 29.160156 52.34375 L 29.160156 52.375 C 29.160156 52.378906 29.160156 52.378906 29.160156 52.382812 L 29.160156 52.394531 C 29.160156 52.398438 29.160156 52.398438 29.160156 52.398438 L 29.160156 52.414062 C 29.160156 52.414062 29.160156 52.417969 29.160156 52.417969 L 29.160156 52.429688 C 29.160156 52.429688 29.160156 52.433594 29.160156 52.433594 L 29.160156 52.4375 C 29.160156 52.441406 29.160156 52.449219 29.160156 52.453125 L 29.160156 52.457031 C 29.125 54.667969 28.242188 56.675781 26.820312 58.175781 C 26.167969 58.863281 25.40625 59.445312 24.554688 59.890625 L 27.167969 58.570312 L 28.621094 57.835938 C 35.316406 54.527344 39.910156 47.683594 39.910156 39.78125 Z M 39.511719 35.804688 "/>
<path style=" stroke:none;fill-rule:nonzero;fill:url(#linear2);" d="M 22.859375 40.761719 C 22.394531 40.761719 21.925781 40.75 21.453125 40.730469 C 18.78125 40.609375 16.203125 40.144531 13.765625 39.386719 L 12.261719 38.644531 C 10.230469 33.664062 9.339844 28.226562 9.765625 22.746094 C 12.101562 21.578125 14.035156 19.722656 15.285156 17.4375 L 16.3125 15.625 L 28.910156 21.875 C 29.367188 22.109375 29.8125 22.359375 30.25 22.625 C 30.25 22.625 30.25 22.625 30.25 22.628906 C 30.253906 22.628906 30.253906 22.628906 30.257812 22.628906 C 30.257812 22.632812 30.261719 22.632812 30.261719 22.632812 C 34.964844 25.523438 38.390625 30.253906 39.511719 35.804688 C 34.71875 38.941406 28.984375 40.761719 22.859375 40.761719 "/>
</g>
</svg>
